HIERARCHY
ROOT Hips
{
	OFFSET 0.00000 0.00000 0.00000
	CHANNELS 6 Xposition Yposition Zposition Yrotation Zrotation Xrotation 
	JOINT Lumbar
	{
		OFFSET 0 0 0
		CHANNELS 3 Zrotation Xrotation Yrotation
		JOINT Neck
		{
			OFFSET 0.00 0.2701 0.00
			CHANNELS 3 Zrotation Xrotation Yrotation
			End Site
			{
				OFFSET 0.00 0.1379 0.00
			}
		}
		JOINT RightShoulder
		{
			OFFSET 0.0119 0.2289 0.1181
			CHANNELS 3 Zrotation Xrotation Yrotation
			JOINT RightElbow
			{
				OFFSET 0.00 -0.1475 0.00
				CHANNELS 2 Zrotation Yrotation
				JOINT RightWrist
				{
					OFFSET 0.00 -0.1605 0.00
					CHANNELS 2 Zrotation Xrotation
					End Site
					{
						OFFSET 0.0040 -0.1068 0.0006
					}
				}
			}
		}
		JOINT LeftShoulder
		{
			OFFSET 0.0119 0.2289 -0.1181
			CHANNELS 3 Zrotation Xrotation Yrotation
			JOINT LeftElbow
			{
				OFFSET 0.00 -0.1475 0.00
				CHANNELS 2 Zrotation Yrotation
				JOINT LeftWrist
				{
					OFFSET 0.00 -0.1605 0.00
					CHANNELS 2 Zrotation Xrotation
					End Site
					{
						OFFSET 0.0040 -0.1068 -0.0006
					}
				}
			}
		}
	}
	JOINT RightHip
	{
		OFFSET 0.0316 -0.0424 0.0458
		CHANNELS 3 Zrotation Xrotation Yrotation
		JOINT RightKnee
		{
			OFFSET 0.00 -0.2438 0.00
			CHANNELS 1 Zrotation
			JOINT RightAnkle
			{
				OFFSET 0.00 -0.2449 0.00
				CHANNELS 3 Zrotation Xrotation Yrotation
				End Site
				{
					OFFSET 0.1237 -0.0542 0.0051
				}
			}
		}
	}
	JOINT LeftHip
	{
		OFFSET 0.0316 -0.0424 -0.0458
		CHANNELS 3 Zrotation Xrotation Yrotation
		JOINT LeftKnee
		{
			OFFSET 0.00 -0.2438 0.00
			CHANNELS 1 Zrotation
			JOINT LeftAnkle
			{
				OFFSET 0.00 -0.2449 0.00
				CHANNELS 3 Zrotation Xrotation Yrotation
				End Site
				{
					OFFSET 0.1237 -0.0542 -0.0051
				}
			}
		}
	}
}
MOTION
Frames: 14
Frame Time: 0.02
-0.00043 -0.0002 0.00039 28.41026 -31.50799 -6.31483 47.82342 2.97312 -4.51437 7.15287 -0.96541 -0.36963 -13.11254 -10.97974 -4.48263 27.5471 91.57705 4.3361 0.98293 -26.43846 21.02192 -22.03704 44.96335 -105.03713 14.14792 -1.37011 44.4405 -0.48789 -13.66768 -19.43701 -5.98282 -2.33297 -1.7889 46.22345 0.6359 2.02824 -24.77023 -6.22951 3.5559 2.48727
-0.0009 -0.00024 0.0005 28.56519 -31.46867 -6.34157 47.88116 2.92689 -4.49129 7.34872 -0.9949 -0.37012 -12.19101 -10.98989 -3.83253 27.69865 91.44301 4.34518 0.96822 -24.46692 20.38473 -20.95687 45.12616 -104.7305 13.87838 -1.38102 44.44051 -0.38544 -13.11876 -19.42168 -5.99495 -2.42825 -1.84309 46.2323 0.67572 2.16784 -24.77087 -6.22667 3.52355 2.46582
-0.00138 -0.00028 0.00061 28.71973 -31.4294 -6.36825 47.93874 2.88078 -4.46828 7.54403 -1.02431 -0.37061 -11.27162 -10.99998 -3.18362 27.85008 91.30967 4.35444 0.95352 -22.49973 19.74926 -19.88039 45.28869 -104.42434 13.6094 -1.39188 44.44051 -0.28329 -12.57142 -19.40638 -6.00706 -2.52325 -1.89713 46.24114 0.71545 2.30716 -24.7715 -6.22383 3.49128 2.44442
-0.00185 -0.00032 0.00071 28.8742 -31.39019 -6.39492 47.99631 2.83468 -4.44526 7.73929 -1.05372 -0.3711 -10.35279 -11.0101 -2.53538 28.00122 91.17608 4.36352 0.93885 -20.53393 19.11399 -18.80361 45.45104 -104.11857 13.34064 -1.40275 44.44051 -0.18115 -12.02417 -19.3911 -6.01916 -2.61824 -1.95116 46.24996 0.75516 2.44636 -24.77213 -6.22099 3.45903 2.42303
-0.00232 -0.00037 0.00082 29.029 -31.35095 -6.42163 48.05402 2.78849 -4.4222 7.93505 -1.08321 -0.37159 -9.43215 -11.02028 -1.88629 28.15236 91.0417 4.37237 0.92417 -18.56456 18.47709 -17.723 45.61358 -103.81254 13.07146 -1.41369 44.44054 -0.07872 -11.47537 -19.3758 -6.03129 -2.71348 -2.00533 46.25882 0.79495 2.58579 -24.77277 -6.21814 3.42673 2.40161
-0.00279 -0.00041 0.00093 29.183 -31.31161 -6.44824 48.11134 2.74255 -4.39929 8.12939 -1.11244 -0.37207 -8.51551 -11.0302 -1.2378 28.30441 90.91055 4.38247 0.90943 -16.60213 17.84466 -16.65523 45.77609 -103.50613 12.80294 -1.42435 44.44047 0.02282 -10.93113 -19.36051 -6.04337 -2.80797 -2.05909 46.2676 0.83454 2.72485 -24.77339 -6.21533 3.3945 2.38026
-0.00326 -0.00045 0.00103 29.33846 -31.27254 -6.47503 48.16937 2.69615 -4.37606 8.3264 -1.14217 -0.37256 -7.59169 -11.04064 -0.58877 28.45443 90.77301 4.39003 0.89483 -14.62764 17.20396 -15.56292 45.93847 -103.20076 12.53334 -1.43557 44.4406 0.12605 -10.37834 -19.3452 -6.05551 -2.90387 -2.11362 46.27652 0.8745 2.86452 -24.77405 -6.21245 3.36217 2.35878
-0.00373 -0.00049 0.00114 29.49256 -31.2332 -6.50166 48.22675 2.65017 -4.35318 8.52088 -1.17144 -0.37305 -6.67474 -11.05057 0.05966 28.60635 90.64143 4.39993 0.88013 -12.66477 16.57083 -14.49304 46.10098 -102.89455 12.26479 -1.44628 44.44053 0.22772 -9.8334 -19.32991 -6.06761 -2.99849 -2.16745 46.2853 0.91411 3.00359 -24.77467 -6.20963 3.32993 2.33742
-0.00421 -0.00053 0.00125 29.64511 -31.19356 -6.52807 48.28337 2.60467 -4.33053 8.71266 -1.20015 -0.37354 -5.76467 -11.05999 0.70817 28.76065 90.51686 4.41276 0.86515 -10.71299 15.94689 -13.45098 46.26375 -102.58661 11.99714 -1.45632 44.44027 0.32752 -9.29796 -19.31463 -6.07964 -3.09153 -2.22041 46.29396 0.95336 3.14216 -24.77523 -6.2069 3.29777 2.3162
-0.00467 -0.00058 0.00135 29.80692 -31.15573 -6.5557 48.34445 2.55635 -4.30595 8.92115 -1.2321 -0.37404 -4.81041 -11.07269 1.35873 28.90143 90.35114 4.40896 0.85132 -8.68793 15.26985 -12.25005 46.42535 -102.28652 11.72314 -1.47011 44.44127 0.43821 -8.70756 -19.29928 -6.09202 -3.19361 -2.27833 46.30347 0.99488 3.28433 -24.77612 -6.20367 3.26508 2.29415
-0.00515 -0.00062 0.00146 29.94896 -31.11406 -6.58076 48.39608 2.51402 -4.28583 9.0936 -1.25719 -0.3745 -3.95247 -11.07825 2.0032 29.07055 90.27274 4.44007 0.83537 -6.82387 14.70503 -11.38356 46.58915 -101.97129 11.46336 -1.47603 44.43952 0.52583 -8.23334 -19.28408 -6.10366 -3.27662 -2.32578 46.31108 1.03147 3.41838 -24.77633 -6.20151 3.23355 2.27388
-0.0057 -0.00065 0.00162 30.03803 -31.06189 -6.59885 48.42188 2.48794 -4.27471 9.17287 -1.26365 -0.37485 -3.33636 -11.06566 2.64427 29.3198 90.4383 4.57075 0.81214 -5.35388 14.44973 -11.44988 46.76107 -101.60259 11.23624 -1.4598 44.43085 0.55019 -8.07922 -19.26912 -6.11315 -3.30669 -2.34436 46.31427 1.05567 3.53444 -24.7746 -6.20218 3.20488 2.25818
-0.00628 -0.00068 0.00178 30.10687 -31.00587 -6.61434 48.43818 2.46795 -4.26855 9.21486 -1.26323 -0.37517 -2.82164 -11.04547 3.27569 29.59691 90.69487 4.73674 0.78778 -4.05537 14.30706 -11.84926 46.93465 -101.22117 11.02476 -1.4358 44.41936 0.55134 -8.04165 -19.25434 -6.12189 -3.31767 -2.35243 46.31545 1.07472 3.64157 -24.77222 -6.20393 3.17745 2.24433
-0.00683 -0.00071 0.00194 30.18432 -30.95153 -6.63099 48.45882 2.44524 -4.26239 9.27022 -1.26578 -0.3755 -2.27451 -11.02804 3.90421 29.85996 90.9017 4.88285 0.76398 -2.70826 14.11147 -12.08632 47.10632 -100.85297 10.81007 -1.41571 44.40867 0.56311 -7.94973 -19.23956 -6.13106 -3.33782 -2.36543 46.31698 1.09536 3.74995 -24.77022 -6.20526 3.14961 2.22981
